<svg width="162" height="163" viewBox="0 0 162 163" fill="none" xmlns="http://www.w3.org/2000/svg">
<path d="M146.683 88.0579C146.875 86.9637 147.273 86.031 147.878 85.2598C148.482 84.4885 149.242 83.9375 150.156 83.6066C151.08 83.2776 152.094 83.2096 153.198 83.4028C154.303 83.5959 155.234 84.0042 155.991 84.6274C156.749 85.2506 157.281 86.0276 157.588 86.9584C157.895 87.8891 157.953 88.9016 157.762 89.9957C157.506 91.4546 156.923 92.6107 156.012 93.464L154.522 93.2035C155.457 92.4586 156.052 91.3516 156.309 89.8826C156.453 89.062 156.413 88.3033 156.19 87.6066C155.966 86.92 155.571 86.3445 155.005 85.88C154.449 85.4173 153.755 85.1133 152.925 84.968C152.094 84.8227 151.333 84.8724 150.643 85.1171C149.951 85.3719 149.383 85.7842 148.939 86.3538C148.493 86.9336 148.199 87.6287 148.057 88.4392C147.926 89.1889 147.906 89.8744 147.995 90.4956C148.093 91.1288 148.316 91.7368 148.663 92.3195L147.158 92.0564C146.558 91.0117 146.4 89.6788 146.683 88.0579Z" fill="#1E1E1E"/>
<path d="M145.01 98.0037C145.282 97.2163 145.668 96.5716 146.167 96.0697C146.674 95.5808 147.263 95.262 147.934 95.1132C148.612 94.9775 149.33 95.0406 150.089 95.3026C150.837 95.5612 151.436 95.9532 151.886 96.4785C152.335 97.0038 152.607 97.6198 152.7 98.3267C152.803 99.0368 152.718 99.7856 152.446 100.573C152.174 101.36 151.778 102.002 151.259 102.497C150.749 102.996 150.156 103.313 149.478 103.448C148.796 103.594 148.081 103.537 147.333 103.279C146.575 103.017 145.972 102.618 145.526 102.083C145.086 101.561 144.82 100.947 144.727 100.24C144.643 99.5365 144.737 98.7911 145.01 98.0037ZM146.176 98.4067C145.914 99.165 145.939 99.8483 146.251 100.457C146.563 101.065 147.099 101.5 147.857 101.762C148.644 102.034 149.344 102.026 149.955 101.736C150.566 101.447 151.003 100.923 151.265 100.165C151.527 99.4067 151.507 98.7251 151.204 98.1201C150.902 97.515 150.357 97.0765 149.57 96.8045C148.811 96.5425 148.122 96.5545 147.501 96.8405C146.88 97.1264 146.438 97.6485 146.176 98.4067Z" fill="#1E1E1E"/>
<path d="M153.608 108.958L152.99 110.388L142.524 105.869L143.141 104.438L153.608 108.958Z" fill="#1E1E1E"/>
<path d="M151.48 114.072L150.763 115.456L140.641 110.209L141.358 108.826L151.48 114.072Z" fill="#1E1E1E"/>
<path d="M137.75 115.592C138.274 114.866 138.879 114.415 139.564 114.238C140.253 114.075 140.914 114.222 141.548 114.68C142.215 115.161 142.577 115.74 142.635 116.416C142.695 117.106 142.445 117.839 141.885 118.614C141.289 119.44 140.616 120.02 139.868 120.355L140.18 120.58C140.656 120.924 141.111 121.03 141.547 120.901C141.985 120.786 142.427 120.42 142.872 119.803C143.137 119.436 143.359 119.05 143.536 118.646C143.716 118.256 143.843 117.878 143.917 117.513L144.943 118.253C144.879 118.588 144.736 118.979 144.513 119.427C144.3 119.882 144.057 120.297 143.786 120.672C143.07 121.664 142.319 122.239 141.534 122.395C140.751 122.566 139.972 122.371 139.197 121.811L135.482 119.129L136.339 117.941L137.015 118.429C136.918 117.966 136.924 117.5 137.033 117.034C137.144 116.581 137.383 116.1 137.75 115.592ZM138.487 116.6C138.198 117 138.016 117.42 137.94 117.859C137.863 118.299 137.91 118.7 138.079 119.064L138.892 119.65C139.633 119.361 140.245 118.883 140.726 118.216C141.076 117.732 141.242 117.3 141.224 116.92C141.209 116.554 141.01 116.233 140.627 115.956C139.893 115.426 139.18 115.641 138.487 116.6Z" fill="#1E1E1E"/>
<path d="M131.455 124.397C131.927 123.924 132.411 123.586 132.905 123.382C133.4 123.193 133.953 123.113 134.564 123.142L133.8 122.379L134.869 121.31L142.93 129.371L141.829 130.473L138.305 126.949C138.349 127.473 138.254 127.997 138.022 128.52C137.789 129.044 137.454 129.524 137.018 129.96C136.494 130.484 135.905 130.833 135.251 131.007C134.596 131.196 133.942 131.196 133.287 131.007C132.625 130.826 132.022 130.462 131.476 129.917C130.924 129.364 130.556 128.757 130.375 128.095C130.193 127.448 130.196 126.797 130.385 126.142C130.575 125.502 130.931 124.92 131.455 124.397ZM132.578 125.019C132.222 125.375 131.978 125.771 131.847 126.208C131.716 126.658 131.716 127.109 131.847 127.56C131.971 128.018 132.218 128.433 132.589 128.804C132.96 129.175 133.374 129.422 133.833 129.546C134.284 129.677 134.734 129.677 135.185 129.546C135.629 129.422 136.029 129.182 136.385 128.826C136.829 128.382 137.105 127.866 137.214 127.277C137.323 126.688 137.24 126.131 136.963 125.608L135.785 124.429C135.247 124.168 134.691 124.084 134.116 124.179C133.542 124.288 133.029 124.568 132.578 125.019Z" fill="#1E1E1E"/>
<path d="M126.247 138.321L127.17 137.675L127.86 138.661L126.937 139.306L127.769 140.495C128.258 141.194 128.432 141.863 128.289 142.503C128.153 143.151 127.751 143.708 127.086 144.174C126.74 144.415 126.38 144.592 126.006 144.703L125.263 143.641C125.576 143.586 125.859 143.469 126.111 143.293C126.507 143.015 126.73 142.715 126.78 142.392C126.836 142.076 126.722 141.717 126.439 141.312L125.661 140.2L124.144 141.261L123.454 140.275L124.971 139.214L121.415 134.133L122.691 133.24L126.247 138.321Z" fill="#1E1E1E"/>
<path d="M114.186 138.802C115.407 138.186 116.52 138.005 117.523 138.259C118.522 138.527 119.302 139.216 119.862 140.327C120.409 141.411 120.534 142.425 120.238 143.369C119.934 144.317 119.207 145.081 118.059 145.66C117.297 146.044 116.576 146.224 115.895 146.199C115.219 146.183 114.618 145.985 114.092 145.605C113.562 145.239 113.132 144.73 112.803 144.078L112.456 143.389L118.269 140.457C117.908 139.856 117.41 139.52 116.775 139.448C116.136 139.391 115.403 139.57 114.576 139.987C114.154 140.2 113.745 140.452 113.351 140.743C112.961 141.044 112.633 141.341 112.367 141.637L111.805 140.521C112.038 140.253 112.38 139.96 112.83 139.641C113.265 139.318 113.717 139.038 114.186 138.802ZM114.258 143.707C114.591 144.322 115.041 144.7 115.607 144.841C116.169 144.995 116.808 144.892 117.524 144.53C118.222 144.178 118.674 143.726 118.879 143.173C119.084 142.621 119.045 142.041 118.762 141.435L114.258 143.707Z" fill="#1E1E1E"/>
<path d="M106.768 142.507C107.251 142.332 107.786 142.209 108.373 142.139C108.957 142.059 109.44 142.064 109.823 142.155L110.275 143.402C109.818 143.316 109.316 143.29 108.77 143.324C108.228 143.367 107.725 143.473 107.261 143.641C106.739 143.831 106.379 144.032 106.183 144.245C105.987 144.459 105.94 144.705 106.041 144.986C106.118 145.199 106.238 145.347 106.399 145.43C106.555 145.527 106.787 145.58 107.097 145.588C107.396 145.6 107.838 145.582 108.423 145.534C109.053 145.492 109.567 145.491 109.965 145.533C110.356 145.588 110.687 145.714 110.955 145.912C111.214 146.114 111.419 146.423 111.57 146.838C111.812 147.506 111.733 148.103 111.333 148.631C110.928 149.171 110.28 149.603 109.391 149.925C108.926 150.094 108.456 150.215 107.98 150.289C107.504 150.363 107.102 150.372 106.775 150.315L106.334 149.097C106.674 149.16 107.069 149.164 107.52 149.11C107.961 149.06 108.394 148.957 108.82 148.803C109.332 148.618 109.701 148.413 109.926 148.189C110.151 147.965 110.206 147.694 110.09 147.375C110.017 147.171 109.899 147.028 109.738 146.944C109.576 146.861 109.352 146.816 109.066 146.811C108.773 146.818 108.32 146.851 107.707 146.909C106.739 146.987 106.027 146.922 105.569 146.716C105.102 146.513 104.763 146.122 104.553 145.542C104.335 144.942 104.409 144.374 104.772 143.838C105.136 143.301 105.801 142.858 106.768 142.507Z" fill="#1E1E1E"/>
<path d="M99.978 144.943C100.706 144.76 101.322 144.828 101.826 145.147C102.321 145.469 102.664 146.014 102.857 146.782L103.817 150.613L104.909 150.339L105.202 151.506L104.11 151.78L104.65 153.935L103.124 154.317L102.583 152.162L100.818 152.605L100.525 151.438L102.291 150.995L101.356 147.269C101.236 146.79 101.062 146.474 100.832 146.319C100.592 146.167 100.228 146.152 99.7394 146.275C99.4501 146.347 99.177 146.485 98.9202 146.687L98.6201 145.49C98.9667 145.265 99.4193 145.083 99.978 144.943Z" fill="#1E1E1E"/>
<path d="M92.5163 152.473L87.6082 152.834L87.5145 151.557L92.4225 151.196L92.5163 152.473Z" fill="#1E1E1E"/>
<path d="M74.2229 147.534C75.3163 147.73 76.2475 148.131 77.0164 148.739C77.7853 149.347 78.3335 150.108 78.6608 151.024C78.9863 151.949 79.0504 152.963 78.853 154.067C78.6556 155.17 78.2439 156.1 77.6177 156.855C76.9916 157.61 76.2126 158.14 75.2806 158.443C74.3487 158.746 73.3361 158.8 72.2427 158.605C70.7848 158.344 69.6309 157.756 68.7811 156.842L69.0473 155.353C69.7886 156.29 70.8933 156.89 72.3613 157.153C73.1814 157.3 73.9402 157.263 74.6378 157.043C75.3252 156.821 75.9023 156.428 76.3689 155.864C76.8337 155.31 77.1403 154.617 77.2888 153.787C77.4373 152.957 77.3906 152.196 77.1485 151.505C76.8963 150.812 76.4862 150.243 75.9183 149.796C75.3402 149.348 74.6462 149.052 73.8363 148.907C73.0871 148.773 72.4017 148.749 71.7801 148.837C71.1466 148.932 70.5378 149.153 69.9537 149.497L70.2226 147.994C71.2696 147.398 72.603 147.244 74.2229 147.534Z" fill="#1E1E1E"/>
<path d="M64.2239 145.793C65.0093 146.071 65.651 146.462 66.1492 146.965C66.6342 147.475 66.9486 148.067 67.0924 148.739C67.223 149.418 67.1544 150.136 66.8868 150.892C66.6225 151.639 66.2261 152.235 65.6974 152.681C65.1687 153.126 64.5506 153.393 63.8431 153.481C63.1322 153.578 62.3841 153.488 61.5988 153.21C60.8134 152.932 60.1751 152.532 59.6838 152.009C59.1891 151.495 58.8764 150.899 58.7458 150.22C58.6055 149.538 58.6674 148.823 58.9317 148.077C59.1993 147.32 59.6024 146.721 60.1407 146.279C60.666 145.843 61.2824 145.581 61.9899 145.493C62.6939 145.415 63.4386 145.515 64.2239 145.793ZM63.8122 146.956C63.0559 146.689 62.3724 146.709 61.7617 147.016C61.151 147.324 60.7118 147.856 60.4442 148.612C60.1662 149.397 60.1696 150.097 60.4543 150.71C60.739 151.324 61.2595 151.764 62.0157 152.032C62.7719 152.3 63.4537 152.285 64.061 151.987C64.6683 151.689 65.1109 151.147 65.3888 150.362C65.6565 149.606 65.6497 148.916 65.3684 148.293C65.0872 147.67 64.5684 147.224 63.8122 146.956Z" fill="#1E1E1E"/>
<path d="M53.3208 154.344L51.8927 153.721L56.4511 143.272L57.8793 143.895L53.3208 154.344Z" fill="#1E1E1E"/>
<path d="M48.1063 152.142L46.7283 151.415L52.0497 141.332L53.4277 142.06L48.1063 152.142Z" fill="#1E1E1E"/>
<path d="M46.7359 138.436C47.4575 138.965 47.9044 139.573 48.0765 140.26C48.2342 140.949 48.082 141.609 47.6199 142.24C47.1335 142.903 46.5522 143.261 45.876 143.314C45.1854 143.369 44.4544 143.114 43.683 142.548C42.8618 141.946 42.2866 141.27 41.9574 140.518L41.7294 140.829C41.3828 141.302 41.2726 141.757 41.3988 142.194C41.5106 142.633 41.8734 143.077 42.4872 143.527C42.8522 143.795 43.2362 144.019 43.6393 144.2C44.0281 144.382 44.4049 144.512 44.7698 144.588L44.022 145.609C43.688 145.542 43.2976 145.396 42.8508 145.171C42.3979 144.954 41.9848 144.708 41.6116 144.435C40.6245 143.711 40.0556 142.956 39.9051 142.17C39.7402 141.386 39.9404 140.608 40.5059 139.837L43.2147 136.141L44.3967 137.008L43.9042 137.68C44.3681 137.586 44.8331 137.596 45.2992 137.708C45.751 137.822 46.2299 138.065 46.7359 138.436ZM45.7225 139.166C45.3244 138.874 44.9058 138.688 44.4667 138.609C44.0277 138.529 43.626 138.573 43.2617 138.739L42.6688 139.548C42.9526 140.291 43.4263 140.906 44.0899 141.393C44.571 141.746 45.0018 141.915 45.3822 141.9C45.7482 141.888 46.0711 141.691 46.3508 141.309C46.8859 140.58 46.6764 139.865 45.7225 139.166Z" fill="#1E1E1E"/>
<path d="M38.0381 132.124C38.5091 132.598 38.8455 133.083 39.0474 133.578C39.2346 134.073 39.3126 134.626 39.2813 135.237L40.0477 134.476L41.1129 135.549L33.0221 143.581L31.9243 142.476L35.4606 138.965C34.9368 139.007 34.4136 138.91 33.8908 138.676C33.368 138.441 32.8893 138.105 32.4545 137.667C31.9328 137.141 31.5859 136.551 31.4137 135.896C31.227 135.241 31.2294 134.586 31.4208 133.932C31.6051 133.271 31.9709 132.669 32.5183 132.125C33.073 131.575 33.6816 131.21 34.344 131.03C34.9919 130.851 35.6428 130.857 36.2966 131.048C36.9359 131.24 37.5164 131.598 38.0381 132.124ZM37.4122 133.245C37.0572 132.887 36.6617 132.642 36.2259 132.51C35.7755 132.377 35.3246 132.376 34.8732 132.505C34.4146 132.627 33.9992 132.873 33.6269 133.242C33.2547 133.612 33.0059 134.025 32.8806 134.483C32.7481 134.933 32.7464 135.384 32.8757 135.836C32.9977 136.28 33.2363 136.681 33.5913 137.038C34.0333 137.484 34.5487 137.762 35.1373 137.873C35.726 137.984 36.2826 137.903 36.8073 137.628L37.9897 136.454C38.2534 135.917 38.3391 135.361 38.2466 134.786C38.1396 134.211 37.8615 133.698 37.4122 133.245Z" fill="#1E1E1E"/>
<path d="M24.1624 126.872L24.8048 127.797L23.8164 128.483L23.174 127.558L21.9829 128.386C21.2817 128.872 20.6116 129.044 19.9727 128.899C19.3253 128.76 18.7698 128.357 18.3064 127.689C18.0659 127.343 17.8907 126.982 17.7809 126.608L18.8454 125.869C18.8998 126.182 19.015 126.465 19.191 126.718C19.4667 127.115 19.7662 127.339 20.0896 127.39C20.4045 127.447 20.7647 127.335 21.1702 127.053L22.2853 126.279L21.2294 124.758L22.2178 124.072L23.2737 125.592L28.3677 122.055L29.2564 123.335L24.1624 126.872Z" fill="#1E1E1E"/>
<path d="M23.7086 114.778C24.3155 116.004 24.4882 117.118 24.2266 118.119C23.9513 119.116 23.256 119.891 22.1408 120.443C21.0531 120.981 20.0385 121.099 19.0968 120.797C18.1505 120.485 17.3922 119.753 16.8218 118.6C16.443 117.835 16.2688 117.113 16.2991 116.432C16.3202 115.756 16.5226 115.157 16.9065 114.634C17.2765 114.106 17.7887 113.68 18.4432 113.356L19.1344 113.014L22.0229 118.849C22.6268 118.492 22.9669 117.997 23.043 117.362C23.1053 116.723 22.9311 115.989 22.5204 115.16C22.3105 114.736 22.0615 114.325 21.7733 113.929C21.4758 113.536 21.1805 113.206 20.8872 112.938L22.0071 112.384C22.2729 112.62 22.5636 112.963 22.8792 113.415C23.1994 113.854 23.4759 114.308 23.7086 114.778ZM18.8031 114.814C18.1854 115.142 17.8042 115.589 17.6594 116.155C17.5008 116.715 17.5994 117.355 17.9553 118.074C18.3021 118.774 18.7511 119.229 19.3022 119.438C19.8533 119.647 20.433 119.613 21.0413 119.335L18.8031 114.814Z" fill="#1E1E1E"/>
<path d="M20.083 107.403C20.2564 107.887 20.3772 108.422 20.4456 109.01C20.5236 109.594 20.5164 110.077 20.4241 110.459L19.175 110.907C19.2625 110.449 19.2904 109.948 19.2588 109.402C19.2174 108.86 19.1135 108.356 18.9471 107.891C18.7598 107.368 18.5599 107.009 18.3473 106.812C18.1347 106.615 17.8881 106.566 17.6073 106.667C17.3942 106.743 17.2456 106.862 17.1614 107.023C17.064 107.178 17.0105 107.411 17.0011 107.72C16.9883 108.019 17.0046 108.461 17.0501 109.046C17.0901 109.676 17.0885 110.19 17.0453 110.588C16.9889 110.98 16.8612 111.31 16.6622 111.577C16.4598 111.836 16.1504 112.039 15.734 112.188C15.0659 112.428 14.4688 112.347 13.9426 111.945C13.4033 111.538 12.9741 110.888 12.6551 109.998C12.4886 109.533 12.3692 109.062 12.2968 108.585C12.2244 108.109 12.2171 107.707 12.2749 107.381L13.4949 106.944C13.4309 107.283 13.425 107.679 13.4773 108.13C13.5262 108.571 13.6269 109.005 13.7795 109.431C13.9633 109.944 14.1667 110.314 14.3897 110.54C14.6126 110.766 14.8839 110.822 15.2034 110.707C15.4067 110.634 15.5505 110.517 15.6348 110.356C15.719 110.195 15.7645 109.971 15.7711 109.684C15.7647 109.392 15.7334 108.939 15.6775 108.325C15.604 107.357 15.6712 106.645 15.879 106.188C16.0833 105.722 16.476 105.384 17.0569 105.176C17.6572 104.961 18.225 105.036 18.7601 105.402C19.2952 105.767 19.7362 106.434 20.083 107.403Z" fill="#1E1E1E"/>
<path d="M17.6891 100.649C17.8689 101.378 17.7984 101.994 17.4775 102.497C17.1542 102.99 16.6081 103.331 15.8392 103.521L12.0048 104.466L12.2745 105.56L11.1062 105.848L10.8365 104.755L8.67965 105.287L8.30278 103.759L10.4596 103.227L10.0237 101.459L11.192 101.171L11.6279 102.939L15.3575 102.019C15.8368 101.9 16.1542 101.727 16.3095 101.498C16.4624 101.259 16.4785 100.895 16.3579 100.405C16.2864 100.116 16.1501 99.8422 15.9488 99.5846L17.1471 99.2891C17.3705 99.6365 17.5512 100.09 17.6891 100.649Z" fill="#1E1E1E"/>
<path d="M10.1571 93.1138L9.83461 88.2031L11.1123 88.1192L11.4349 93.0299L10.1571 93.1138Z" fill="#1E1E1E"/>
<path d="M15.1845 74.8131C14.9805 75.905 14.5718 76.833 13.9582 77.5973C13.3446 78.3616 12.579 78.9039 11.6612 79.2242C10.7333 79.5426 9.7184 79.5989 8.61641 79.3931C7.51442 79.1873 6.58824 78.7684 5.83786 78.1365C5.08749 77.5046 4.56413 76.7216 4.2678 75.7873C3.97147 74.8531 3.92528 73.8401 4.12922 72.7482C4.40113 71.2924 4.99769 70.1431 5.91888 69.3002L7.40505 69.5778C6.4623 70.312 5.85402 71.412 5.58021 72.878C5.42726 73.6969 5.45812 74.456 5.67278 75.1552C5.88934 75.8443 6.27798 76.4244 6.8387 76.8953C7.38932 77.3643 8.07914 77.6763 8.90816 77.8311C9.73717 77.986 10.4981 77.945 11.191 77.7082C11.8858 77.4613 12.4586 77.0556 12.9093 76.4911C13.3619 75.9165 13.6637 75.2248 13.8148 74.416C13.9545 73.6679 13.9831 72.9827 13.9005 72.3604C13.8098 71.7262 13.5942 71.1157 13.2539 70.529L14.7552 70.8094C15.3435 71.8609 15.4866 73.1955 15.1845 74.8131Z" fill="#1E1E1E"/>
<path d="M16.9318 64.9995C16.6509 65.7838 16.2577 66.4241 15.7522 66.9203C15.2405 67.4034 14.648 67.7156 13.9747 67.8568C13.2952 67.9849 12.5779 67.9136 11.8226 67.6431C11.0771 67.3761 10.4825 66.9774 10.0388 66.4471C9.59516 65.9167 9.33075 65.2976 9.24562 64.5898C9.1508 63.8785 9.24384 63.1307 9.52476 62.3464C9.80567 61.5622 10.2086 60.9254 10.7334 60.436C11.2486 59.9432 11.8459 59.6328 12.5254 59.5047C13.2084 59.367 13.9226 59.4316 14.6682 59.6987C15.4234 59.9692 16.0211 60.3745 16.4613 60.9145C16.8953 61.4414 17.1549 62.0587 17.24 62.7666C17.3155 63.4709 17.2127 64.2152 16.9318 64.9995ZM15.7699 64.5833C16.0404 63.8281 16.0231 63.1446 15.7179 62.5327C15.4126 61.9208 14.8824 61.4797 14.1272 61.2092C13.3429 60.9282 12.6435 60.929 12.0288 61.2114C11.4142 61.4938 10.9717 62.0126 10.7012 62.7678C10.4307 63.523 10.4432 64.2049 10.7387 64.8132C11.0343 65.4216 11.5742 65.8663 12.3585 66.1472C13.1137 66.4177 13.8035 66.4135 14.4277 66.1346C15.052 65.8556 15.4994 65.3386 15.7699 64.5833Z" fill="#1E1E1E"/>
<path d="M8.47149 53.8939L9.10513 52.4704L19.5206 57.1067L18.8869 58.5302L8.47149 53.8939Z" fill="#1E1E1E"/>
<path d="M10.7473 48.5956L11.4847 47.223L21.5277 52.6187L20.7903 53.9913L10.7473 48.5956Z" fill="#1E1E1E"/>
<path d="M24.315 47.5403C23.7834 48.26 23.1737 48.7047 22.4858 48.8743C21.7958 49.0295 21.1364 48.8749 20.5077 48.4105C19.8459 47.9216 19.4899 47.339 19.4397 46.6626C19.3873 45.9718 19.6453 45.2418 20.2136 44.4724C20.8185 43.6534 21.4973 43.0807 22.2498 42.7543L21.9396 42.5252C21.468 42.1769 21.0136 42.065 20.5764 42.1895C20.137 42.2997 19.6912 42.6609 19.239 43.2731C18.9702 43.6371 18.7446 44.0203 18.5624 44.4227C18.3781 44.8108 18.2471 45.1872 18.1696 45.5518L17.152 44.8002C17.2195 44.4665 17.3668 44.0766 17.594 43.6307C17.8128 43.1786 18.0597 42.7664 18.3347 42.3941C19.0619 41.4097 19.8188 40.8436 20.6056 40.6959C21.3902 40.5339 22.1672 40.737 22.9365 41.3053L26.622 44.0275L25.7513 45.2064L25.0812 44.7114C25.173 45.1757 25.162 45.6406 25.0482 46.1063C24.9322 46.5577 24.6878 47.0357 24.315 47.5403ZM23.5887 46.5243C23.882 46.1272 24.0692 45.7093 24.1503 45.2706C24.2315 44.8318 24.1895 44.43 24.0243 44.065L23.2177 43.4692C22.4731 43.7503 21.8563 44.2218 21.3675 44.8836C21.013 45.3634 20.8424 45.7935 20.8554 46.174C20.8663 46.5401 21.0621 46.8636 21.4426 47.1447C22.1706 47.6825 22.886 47.4757 23.5887 46.5243Z" fill="#1E1E1E"/>
<path d="M30.7091 38.7595C30.2312 39.2271 29.744 39.5599 29.2472 39.7582C28.7507 39.9419 28.1971 40.0158 27.5866 39.9801L28.3418 40.752L27.2612 41.8093L19.288 33.6604L20.4017 32.5707L23.8866 36.1324C23.8487 35.6083 23.949 35.0858 24.1874 34.5647C24.4258 34.0437 24.7655 33.5674 25.2066 33.1358C25.7359 32.6179 26.3287 32.2753 26.9851 32.1079C27.6417 31.9259 28.2961 31.9331 28.9486 32.1293C29.6083 32.3183 30.208 32.6885 30.7474 33.2398C31.2941 33.7985 31.6547 34.4097 31.8293 35.0735C32.004 35.7227 31.9933 36.3735 31.7971 37.0259C31.601 37.6638 31.2384 38.2417 30.7091 38.7595ZM29.5923 38.1255C29.9525 37.7731 30.2005 37.3794 30.3361 36.9445C30.4719 36.4951 30.4768 36.0442 30.3509 35.5919C30.2322 35.1324 29.9895 34.7152 29.6227 34.3403C29.2558 33.9654 28.844 33.7136 28.3872 33.585C27.9378 33.4492 27.4869 33.4443 27.0346 33.5703C26.5897 33.6891 26.1871 33.9247 25.8269 34.2771C25.3785 34.7159 25.0965 35.2292 24.981 35.817C24.8655 36.4049 24.9431 36.9621 25.2137 37.4887L26.3789 38.6796C26.9142 38.9473 27.4696 39.037 28.0451 38.9487C28.6208 38.8459 29.1365 38.5715 29.5923 38.1255Z" fill="#1E1E1E"/>
<path d="M36.1207 24.8262L35.191 25.4617L34.5119 24.4683L35.4416 23.8328L34.6232 22.6356C34.1415 21.9309 33.9753 21.2596 34.1248 20.6217C34.2685 19.9753 34.6757 19.4229 35.3464 18.9643C35.6945 18.7264 36.0562 18.5539 36.4315 18.4468L37.1629 19.5166C36.8497 19.5687 36.5657 19.6819 36.311 19.856C35.912 20.1288 35.6858 20.4267 35.6325 20.7496C35.5734 21.0641 35.6832 21.4251 35.9618 21.8327L36.7279 22.9534L38.2562 21.9087L38.9353 22.9021L37.407 23.9468L40.907 29.0666L39.6206 29.9459L36.1207 24.8262Z" fill="#1E1E1E"/>
<path d="M47.9337 24.59C46.7056 25.1924 45.5911 25.3609 44.5905 25.0957C43.5945 24.8167 42.8225 24.1185 42.2745 23.0012C41.7401 21.9116 41.626 20.8965 41.9322 19.9559C42.2476 19.0108 42.9824 18.2552 44.1367 17.6891C44.9031 17.3132 45.6266 17.1416 46.3071 17.1744C46.983 17.198 47.5817 17.4027 48.1031 17.7885C48.6292 18.1605 49.053 18.6743 49.3746 19.3299L49.7143 20.0224L43.8691 22.8892C44.2233 23.4945 44.7174 23.8363 45.3516 23.9148C45.9904 23.9795 46.7254 23.808 47.5564 23.4004C47.9812 23.1921 48.3925 22.9446 48.7902 22.6579C49.1835 22.3619 49.5146 22.0678 49.7836 21.7754L50.3339 22.8974C50.0973 23.1623 49.7524 23.4518 49.2992 23.7657C48.8598 24.0843 48.4046 24.3591 47.9337 24.59ZM47.9161 19.6844C47.5897 19.0655 47.1441 18.6826 46.5795 18.5357C46.0196 18.375 45.3795 18.4713 44.6592 18.8246C43.9574 19.1688 43.501 19.616 43.2897 20.1664C43.0785 20.7167 43.1109 21.2965 43.3868 21.9058L47.9161 19.6844Z" fill="#1E1E1E"/>
<path d="M55.6513 20.8333C55.1658 21.003 54.6292 21.1199 54.0414 21.1838C53.457 21.2574 52.9739 21.2466 52.5919 21.1514L52.1539 19.899C52.6106 19.9899 53.112 20.0216 53.6581 19.994C54.2007 19.9568 54.705 19.8567 55.171 19.6937C55.6953 19.5104 56.0567 19.3132 56.2553 19.1021C56.4538 18.891 56.5039 18.6447 56.4054 18.3632C56.3307 18.1496 56.2131 18.0001 56.0524 17.9146C55.8981 17.816 55.6664 17.7609 55.3572 17.7491C55.0577 17.734 54.6155 17.747 54.0307 17.7881C53.4001 17.8234 52.8861 17.8179 52.4886 17.7717C52.0974 17.7124 51.7686 17.5822 51.5022 17.3812C51.2455 17.1768 51.0442 16.8659 50.8982 16.4484C50.6639 15.7786 50.7495 15.1821 51.1549 14.6589C51.5666 14.1227 52.2191 13.6984 53.1122 13.3861C53.5782 13.2231 54.0498 13.1072 54.5269 13.0384C55.0041 12.9696 55.4057 12.9653 55.7319 13.0256L56.1597 14.2489C55.8204 14.1823 55.4251 14.1734 54.9737 14.2223C54.532 14.2679 54.0975 14.3653 53.6704 14.5147C53.1558 14.6946 52.7847 14.8952 52.557 15.1165C52.3293 15.3378 52.2715 15.6086 52.3835 15.929C52.4548 16.1329 52.5708 16.2775 52.7314 16.363C52.8921 16.4485 53.1156 16.4956 53.4019 16.5044C53.6946 16.5001 54.148 16.4723 54.762 16.421C55.7303 16.3548 56.4421 16.4273 56.8973 16.6385C57.3622 16.8464 57.6965 17.2416 57.9003 17.8241C58.1108 18.426 58.0313 18.9931 57.6618 19.5255C57.2922 20.0578 56.6221 20.4937 55.6513 20.8333Z" fill="#1E1E1E"/>
<path d="M62.391 18.4864C61.6607 18.6607 61.0453 18.5855 60.5449 18.2608C60.0545 17.9337 59.7174 17.385 59.5336 16.6147L58.6169 12.7732L57.5215 13.0346L57.2422 11.8642L58.3376 11.6028L57.822 9.44192L59.3526 9.07668L59.8682 11.2375L61.6389 10.815L61.9182 11.9855L60.1475 12.408L61.0391 16.1445C61.1537 16.6246 61.3249 16.9433 61.5527 17.1004C61.7905 17.2551 62.1545 17.274 62.6447 17.157C62.9348 17.0878 63.2094 16.9536 63.4685 16.7543L63.755 17.9547C63.4059 18.1755 62.9512 18.3527 62.391 18.4864Z" fill="#1E1E1E"/>
<path d="M69.592 11.0347L74.5039 10.731L74.5829 12.0091L69.671 12.3127L69.592 11.0347Z" fill="#1E1E1E"/>
<path d="M87.9476 16.0789C86.8565 15.8708 85.93 15.4585 85.1681 14.8421C84.4062 14.2256 83.8668 13.4578 83.55 12.5388C83.2351 11.6098 83.1827 10.5946 83.3927 9.49342C83.6028 8.39223 84.0252 7.46766 84.6599 6.7197C85.2947 5.97175 86.0798 5.45139 87.0151 5.15863C87.9504 4.86588 88.9637 4.82355 90.0547 5.03167C91.5095 5.30915 92.6566 5.91009 93.4959 6.8345L93.2126 8.3196C92.482 7.37405 91.3843 6.76157 89.9194 6.48216C89.1011 6.32607 88.3419 6.35403 87.6419 6.56602C86.9519 6.77994 86.3704 7.16636 85.8973 7.72528C85.4262 8.2741 85.1116 8.96272 84.9536 9.79114C84.7956 10.6196 84.8337 11.3807 85.0678 12.0745C85.312 12.7702 85.7155 13.3445 86.2783 13.7974C86.8512 14.2522 87.5417 14.5566 88.3499 14.7108C89.0975 14.8534 89.7826 14.8846 90.4052 14.8044C91.0398 14.716 91.6511 14.5028 92.2391 14.1648L91.9529 15.665C90.8991 16.2493 89.564 16.3873 87.9476 16.0789Z" fill="#1E1E1E"/>
<path d="M98.1562 17.9559C97.3741 17.6691 96.7368 17.2711 96.2443 16.7618C95.765 16.2465 95.4573 15.6517 95.3212 14.9774C95.1982 14.2969 95.2749 13.5801 95.551 12.8269C95.8237 12.0834 96.2268 11.4918 96.7605 11.0522C97.2942 10.6125 97.9152 10.3528 98.6237 10.2729C99.3356 10.1835 100.083 10.2821 100.865 10.5689C101.647 10.8557 102.281 11.2634 102.766 11.7919C103.255 12.3108 103.561 12.9104 103.684 13.5909C103.817 14.2748 103.747 14.9886 103.474 15.7321C103.198 16.4853 102.788 17.0799 102.245 17.5161C101.714 17.9461 101.095 18.201 100.387 18.2808C99.6819 18.351 98.9383 18.2427 98.1562 17.9559ZM98.5811 16.7971C99.3343 17.0733 100.018 17.0611 100.632 16.7605C101.246 16.4598 101.691 15.9329 101.968 15.1798C102.254 14.3976 102.259 13.6982 101.981 13.0815C101.703 12.4648 101.188 12.0183 100.435 11.7421C99.6815 11.466 98.9996 11.4734 98.389 11.7643C97.7784 12.0553 97.3297 12.5918 97.0429 13.374C96.7667 14.1272 96.7658 14.8169 97.04 15.4433C97.3142 16.0697 97.8279 16.5209 98.5811 16.7971Z" fill="#1E1E1E"/>
<path d="M108.899 9.40164L110.32 10.0406L105.645 20.4387L104.224 19.7997L108.899 9.40164Z" fill="#1E1E1E"/>
<path d="M114.233 11.7051L115.603 12.4476L110.17 22.4706L108.8 21.7281L114.233 11.7051Z" fill="#1E1E1E"/>
<path d="M115.607 25.495C114.891 24.9582 114.451 24.3452 114.286 23.6561C114.136 22.965 114.296 22.3067 114.765 21.6814C115.258 21.0232 115.844 20.6715 116.52 20.6262C117.211 20.5789 117.94 20.8422 118.705 21.4161C119.519 22.027 120.087 22.7099 120.408 23.4648L120.639 23.1562C120.991 22.6872 121.106 22.2337 120.985 21.7956C120.878 21.3554 120.52 20.9069 119.911 20.4503C119.549 20.1788 119.168 19.9505 118.767 19.7653C118.38 19.5782 118.004 19.4445 117.64 19.3642L118.399 18.3522C118.733 18.4221 119.121 18.5723 119.566 18.8027C120.016 19.0248 120.426 19.2748 120.797 19.5524C121.776 20.2868 122.336 21.0478 122.478 21.8357C122.635 22.6214 122.426 23.3969 121.852 24.1621L119.103 27.8276L117.93 26.9483L118.43 26.2818C117.965 26.3703 117.501 26.3559 117.036 26.2386C116.585 26.1193 116.109 25.8715 115.607 25.495ZM116.628 24.7761C117.023 25.0723 117.44 25.2626 117.878 25.3469C118.316 25.4312 118.718 25.3922 119.084 25.2297L119.686 24.4274C119.41 23.6808 118.943 23.0606 118.285 22.5669C117.808 22.209 117.379 22.0352 116.999 22.0455C116.632 22.0537 116.307 22.2471 116.024 22.6256C115.481 23.3496 115.682 24.0665 116.628 24.7761Z" fill="#1E1E1E"/>
<path d="M124.358 31.9799C123.894 31.4987 123.565 31.009 123.37 30.5109C123.19 30.013 123.12 29.4589 123.16 28.8487L122.383 29.5983L121.333 28.51L129.54 20.5962L130.622 21.7178L127.035 25.1768C127.559 25.1426 128.081 25.2467 128.6 25.4889C129.119 25.7311 129.593 26.0743 130.022 26.5185C130.536 27.0515 130.874 27.6468 131.037 28.3044C131.214 28.9622 131.202 29.6167 131.001 30.2676C130.807 30.926 130.433 31.5229 129.877 32.0584C129.315 32.6009 128.701 32.9571 128.036 33.1269C127.385 33.2969 126.735 33.2814 126.084 33.0805C125.447 32.8798 124.872 32.513 124.358 31.9799ZM125 30.8678C125.35 31.2306 125.742 31.4813 126.176 31.6202C126.624 31.7592 127.075 31.7674 127.528 31.6447C127.988 31.5294 128.407 31.2897 128.785 30.9257C129.163 30.5616 129.417 30.1516 129.549 29.6957C129.688 29.2473 129.697 28.7965 129.574 28.3433C129.458 27.8975 129.226 27.4932 128.876 27.1305C128.44 26.6788 127.929 26.3932 127.342 26.2734C126.755 26.1536 126.197 26.2271 125.669 26.4939L124.469 27.6505C124.198 28.1838 124.104 28.7385 124.188 29.3147C124.287 29.8911 124.557 30.4088 125 30.8678Z" fill="#1E1E1E"/>
<path d="M137.999 37.1748L137.367 36.2427L138.363 35.5673L138.995 36.4993L140.195 35.6853C140.902 35.2061 141.574 35.0425 142.211 35.1943C142.857 35.3403 143.408 35.7495 143.864 36.4219C144.101 36.7709 144.272 37.1333 144.378 37.509L143.305 38.2364C143.254 37.923 143.142 37.6386 142.969 37.3833C142.697 36.9832 142.4 36.756 142.078 36.7015C141.763 36.6412 141.402 36.7497 140.993 37.0268L139.87 37.7888L140.909 39.3209L139.913 39.9964L138.874 38.4643L133.741 41.9455L132.867 40.6559L137.999 37.1748Z" fill="#1E1E1E"/>
<path d="M138.418 49.3941C137.824 48.1616 137.664 47.0459 137.937 46.0472C138.223 45.0534 138.927 44.2866 140.049 43.7469C141.142 43.2206 142.158 43.114 143.096 43.4272C144.039 43.7496 144.789 44.49 145.347 45.6485C145.717 46.4177 145.883 47.1424 145.845 47.8226C145.817 48.4984 145.607 49.0955 145.218 49.614C144.842 50.1374 144.325 50.5574 143.667 50.874L142.972 51.2086L140.149 45.3423C139.541 45.6919 139.195 46.1835 139.112 46.8171C139.043 47.4554 139.209 48.1917 139.61 49.0257C139.815 49.452 140.06 49.8651 140.343 50.265C140.637 50.6604 140.928 50.9937 141.218 51.2649L140.093 51.8068C139.829 51.5682 139.542 51.2212 139.232 50.7657C138.917 50.324 138.645 49.8668 138.418 49.3941ZM143.323 49.413C143.945 49.0911 144.331 48.6485 144.482 48.0849C144.647 47.5262 144.555 46.8854 144.207 46.1626C143.868 45.4583 143.424 44.9985 142.876 44.7832C142.327 44.5679 141.747 44.5959 141.136 44.8673L143.323 49.413Z" fill="#1E1E1E"/>
<path d="M141.957 56.7681C141.789 56.2821 141.674 55.745 141.612 55.157C141.541 54.5723 141.553 54.0892 141.65 53.7076L142.904 53.2743C142.811 53.7307 142.778 54.2319 142.803 54.7781C142.839 55.3209 142.937 55.8256 143.098 56.2922C143.279 56.8171 143.475 57.1793 143.685 57.3786C143.896 57.578 144.142 57.629 144.424 57.5316C144.638 57.4577 144.788 57.3406 144.874 57.1803C144.973 57.0263 145.029 56.7948 145.042 56.4856C145.058 56.1862 145.047 55.744 145.008 55.159C144.975 54.5283 144.982 54.0144 145.03 53.617C145.091 53.2261 145.222 52.8977 145.424 52.6321C145.63 52.3762 145.941 52.176 146.359 52.0316C147.03 51.7998 147.626 51.8876 148.148 52.295C148.682 52.7088 149.104 53.3628 149.413 54.2571C149.575 54.7237 149.689 55.1957 149.756 55.6731C149.823 56.1505 149.825 56.5522 149.764 56.8781L148.539 57.3013C148.607 56.9623 148.617 56.567 148.57 56.1154C148.526 55.6735 148.43 55.2387 148.283 54.811C148.105 54.2958 147.905 53.9239 147.685 53.6954C147.465 53.4669 147.194 53.408 146.873 53.5189C146.669 53.5894 146.524 53.7048 146.438 53.8651C146.352 54.0254 146.304 54.2488 146.294 54.5351C146.297 54.8278 146.323 55.2812 146.372 55.8954C146.435 56.864 146.36 57.5755 146.147 58.0299C145.937 58.4941 145.541 58.8269 144.957 59.0284C144.355 59.2366 143.788 59.155 143.257 58.7835C142.726 58.412 142.292 57.7402 141.957 56.7681Z" fill="#1E1E1E"/>
<path d="M144.294 63.5702C144.123 62.8392 144.2 62.2241 144.527 61.725C144.856 61.2358 145.406 60.9008 146.177 60.7199L150.022 59.8179L149.764 58.7214L150.936 58.4466L151.193 59.543L153.356 59.0356L153.715 60.5676L151.553 61.075L151.968 62.8473L150.797 63.1221L150.381 61.3498L146.641 62.2272C146.161 62.34 145.841 62.51 145.683 62.7372C145.528 62.9744 145.507 63.3383 145.623 63.829C145.691 64.1193 145.824 64.3944 146.022 64.6543L144.821 64.9362C144.601 64.5862 144.426 64.1309 144.294 63.5702Z" fill="#1E1E1E"/>
<path d="M151.767 71.3046L152.033 76.2187L150.754 76.2878L150.488 71.3737L151.767 71.3046Z" fill="#1E1E1E"/>
</svg>
